<?xml version="1.0" encoding="UTF-8" standalone="no"?>
<!DOCTYPE svg PUBLIC "-//W3C//DTD SVG 1.1//EN"
 "http://www.w3.org/Graphics/SVG/1.1/DTD/svg11.dtd">
<!-- Generated by graphviz version 2.38.0 (20140413.2041)
 -->
<!-- Title: G Pages: 1 -->
<svg width="3654pt" height="479pt"
 viewBox="0.00 0.00 3653.59 479.00" xmlns="http://www.w3.org/2000/svg" xmlns:xlink="http://www.w3.org/1999/xlink">
<g id="graph0" class="graph" transform="scale(1 1) rotate(0) translate(4 475)">
<title>G</title>
<polygon fill="white" stroke="none" points="-4,4 -4,-475 3649.59,-475 3649.59,4 -4,4"/>
<!-- Eddard_Stark -->
<g id="node1" class="node"><title>Eddard_Stark</title>
<ellipse fill="none" stroke="black" cx="960.495" cy="-453" rx="59.2899" ry="18"/>
<text text-anchor="middle" x="960.495" y="-449.3" font-family="Times New Roman,serif" font-size="14.00">Eddard Stark</text>
</g>
<!-- Robert_Baratheon -->
<g id="node2" class="node"><title>Robert_Baratheon</title>
<ellipse fill="none" stroke="black" cx="1038.49" cy="-366" rx="75.2868" ry="18"/>
<text text-anchor="middle" x="1038.49" y="-362.3" font-family="Times New Roman,serif" font-size="14.00">Robert Baratheon</text>
</g>
<!-- Eddard_Stark&#45;&gt;Robert_Baratheon -->
<g id="edge1" class="edge"><title>Eddard_Stark&#45;&gt;Robert_Baratheon</title>
<path fill="none" stroke="black" d="M975.905,-435.207C987.443,-422.633 1003.39,-405.252 1016.3,-391.182"/>
<polygon fill="black" stroke="black" points="1018.93,-393.493 1023.12,-383.758 1013.78,-388.76 1018.93,-393.493"/>
<text text-anchor="middle" x="1028.99" y="-405.8" font-family="Times New Roman,serif" font-size="14.00">friend(1)</text>
</g>
<!-- Catelyn_Tully -->
<g id="node3" class="node"><title>Catelyn_Tully</title>
<ellipse fill="none" stroke="black" cx="1433.49" cy="-366" rx="59.2899" ry="18"/>
<text text-anchor="middle" x="1433.49" y="-362.3" font-family="Times New Roman,serif" font-size="14.00">Catelyn Tully</text>
</g>
<!-- Eddard_Stark&#45;&gt;Catelyn_Tully -->
<g id="edge2" class="edge"><title>Eddard_Stark&#45;&gt;Catelyn_Tully</title>
<path fill="none" stroke="black" d="M1016.11,-446.639C1070.9,-440.924 1156.86,-430.795 1230.49,-417 1290.78,-405.706 1304.94,-398.67 1364.49,-384 1369.19,-382.844 1374.06,-381.643 1378.95,-380.439"/>
<polygon fill="black" stroke="black" points="1380.08,-383.765 1388.95,-377.974 1378.41,-376.968 1380.08,-383.765"/>
<text text-anchor="middle" x="1316.49" y="-405.8" font-family="Times New Roman,serif" font-size="14.00">wife(2)</text>
</g>
<!-- Jon_Snow -->
<g id="node4" class="node"><title>Jon_Snow</title>
<ellipse fill="none" stroke="black" cx="624.495" cy="-366" rx="46.5926" ry="18"/>
<text text-anchor="middle" x="624.495" y="-362.3" font-family="Times New Roman,serif" font-size="14.00">Jon Snow</text>
</g>
<!-- Eddard_Stark&#45;&gt;Jon_Snow -->
<g id="edge3" class="edge"><title>Eddard_Stark&#45;&gt;Jon_Snow</title>
<path fill="none" stroke="black" d="M903.4,-448.266C855.558,-443.998 785.907,-435.102 727.495,-417 703.236,-409.482 677.536,-397.014 657.876,-386.41"/>
<polygon fill="black" stroke="black" points="659.468,-383.291 649.019,-381.539 656.094,-389.425 659.468,-383.291"/>
<text text-anchor="middle" x="756.495" y="-405.8" font-family="Times New Roman,serif" font-size="14.00">bastard(3)</text>
</g>
<!-- Robb_Stark -->
<g id="node5" class="node"><title>Robb_Stark</title>
<ellipse fill="none" stroke="black" cx="1185.49" cy="-366" rx="53.0913" ry="18"/>
<text text-anchor="middle" x="1185.49" y="-362.3" font-family="Times New Roman,serif" font-size="14.00">Robb Stark</text>
</g>
<!-- Eddard_Stark&#45;&gt;Robb_Stark -->
<g id="edge4" class="edge"><title>Eddard_Stark&#45;&gt;Robb_Stark</title>
<path fill="none" stroke="black" d="M997.427,-438.93C1015.56,-432.446 1037.72,-424.429 1057.49,-417 1086.08,-406.261 1118.09,-393.76 1142.94,-383.944"/>
<polygon fill="black" stroke="black" points="1144.42,-387.121 1152.43,-380.188 1141.85,-380.612 1144.42,-387.121"/>
<text text-anchor="middle" x="1114.99" y="-405.8" font-family="Times New Roman,serif" font-size="14.00">son(4)</text>
</g>
<!-- Bran_Stark -->
<g id="node6" class="node"><title>Bran_Stark</title>
<ellipse fill="none" stroke="black" cx="1306.49" cy="-366" rx="49.2915" ry="18"/>
<text text-anchor="middle" x="1306.49" y="-362.3" font-family="Times New Roman,serif" font-size="14.00">Bran Stark</text>
</g>
<!-- Eddard_Stark&#45;&gt;Bran_Stark -->
<g id="edge5" class="edge"><title>Eddard_Stark&#45;&gt;Bran_Stark</title>
<path fill="none" stroke="black" d="M1010.74,-443.343C1046.32,-436.902 1095.07,-427.448 1137.49,-417 1179.81,-406.579 1227.36,-392.276 1261.21,-381.636"/>
<polygon fill="black" stroke="black" points="1262.34,-384.951 1270.82,-378.6 1260.23,-378.276 1262.34,-384.951"/>
<text text-anchor="middle" x="1207.99" y="-405.8" font-family="Times New Roman,serif" font-size="14.00">son(5)</text>
</g>
<!-- Rickon_Stark -->
<g id="node7" class="node"><title>Rickon_Stark</title>
<ellipse fill="none" stroke="black" cx="58.4948" cy="-366" rx="58.4896" ry="18"/>
<text text-anchor="middle" x="58.4948" y="-362.3" font-family="Times New Roman,serif" font-size="14.00">Rickon Stark</text>
</g>
<!-- Eddard_Stark&#45;&gt;Rickon_Stark -->
<g id="edge6" class="edge"><title>Eddard_Stark&#45;&gt;Rickon_Stark</title>
<path fill="none" stroke="black" d="M901.591,-450.787C753.43,-447.471 368.081,-437.127 241.495,-417 194.668,-409.555 142.634,-394.671 106.059,-383.069"/>
<polygon fill="black" stroke="black" points="106.761,-379.619 96.1702,-379.893 104.621,-386.283 106.761,-379.619"/>
<text text-anchor="middle" x="259.995" y="-405.8" font-family="Times New Roman,serif" font-size="14.00">son(6)</text>
</g>
<!-- Sansa_Stark -->
<g id="node8" class="node"><title>Sansa_Stark</title>
<ellipse fill="none" stroke="black" cx="211.495" cy="-366" rx="53.8905" ry="18"/>
<text text-anchor="middle" x="211.495" y="-362.3" font-family="Times New Roman,serif" font-size="14.00">Sansa Stark</text>
</g>
<!-- Eddard_Stark&#45;&gt;Sansa_Stark -->
<g id="edge7" class="edge"><title>Eddard_Stark&#45;&gt;Sansa_Stark</title>
<path fill="none" stroke="black" d="M901.43,-451.491C765.147,-449.873 432.088,-443.274 323.495,-417 296.632,-410.501 268.218,-397.739 246.731,-386.736"/>
<polygon fill="black" stroke="black" points="248.157,-383.532 237.675,-381.992 244.91,-389.733 248.157,-383.532"/>
<text text-anchor="middle" x="355.495" y="-405.8" font-family="Times New Roman,serif" font-size="14.00">daughter(7)</text>
</g>
<!-- Arya_Stark -->
<g id="node9" class="node"><title>Arya_Stark</title>
<ellipse fill="none" stroke="black" cx="350.495" cy="-366" rx="50.0912" ry="18"/>
<text text-anchor="middle" x="350.495" y="-362.3" font-family="Times New Roman,serif" font-size="14.00">Arya Stark</text>
</g>
<!-- Eddard_Stark&#45;&gt;Arya_Stark -->
<g id="edge8" class="edge"><title>Eddard_Stark&#45;&gt;Arya_Stark</title>
<path fill="none" stroke="black" d="M901.178,-452.402C779.297,-452.543 504.815,-449.146 417.495,-417 401.559,-411.133 386.195,-400.185 374.208,-390.026"/>
<polygon fill="black" stroke="black" points="376.292,-387.197 366.484,-383.191 371.653,-392.439 376.292,-387.197"/>
<text text-anchor="middle" x="449.495" y="-405.8" font-family="Times New Roman,serif" font-size="14.00">daughter(8)</text>
</g>
<!-- Jon_Arryn -->
<g id="node10" class="node"><title>Jon_Arryn</title>
<ellipse fill="none" stroke="black" cx="1557.49" cy="-366" rx="46.5926" ry="18"/>
<text text-anchor="middle" x="1557.49" y="-362.3" font-family="Times New Roman,serif" font-size="14.00">Jon Arryn</text>
</g>
<!-- Eddard_Stark&#45;&gt;Jon_Arryn -->
<g id="edge9" class="edge"><title>Eddard_Stark&#45;&gt;Jon_Arryn</title>
<path fill="none" stroke="black" d="M1018.03,-448.684C1092.66,-443.928 1226.79,-433.837 1340.49,-417 1412.75,-406.301 1430.69,-401.961 1501.49,-384 1505.26,-383.044 1509.16,-381.993 1513.06,-380.898"/>
<polygon fill="black" stroke="black" points="1514.05,-384.254 1522.68,-378.112 1512.1,-377.53 1514.05,-384.254"/>
<text text-anchor="middle" x="1493.49" y="-405.8" font-family="Times New Roman,serif" font-size="14.00">second father, friend(9)</text>
</g>
<!-- Brandon_Stark -->
<g id="node11" class="node"><title>Brandon_Stark</title>
<ellipse fill="none" stroke="black" cx="2133.49" cy="-366" rx="63.8893" ry="18"/>
<text text-anchor="middle" x="2133.49" y="-362.3" font-family="Times New Roman,serif" font-size="14.00">Brandon Stark</text>
</g>
<!-- Eddard_Stark&#45;&gt;Brandon_Stark -->
<g id="edge10" class="edge"><title>Eddard_Stark&#45;&gt;Brandon_Stark</title>
<path fill="none" stroke="black" d="M1019.34,-450.981C1222.88,-447.321 1889.75,-434.139 1984.49,-417 2021.16,-410.367 2061.11,-396.582 2090.4,-385.164"/>
<polygon fill="black" stroke="black" points="2091.9,-388.334 2099.91,-381.396 2089.32,-381.827 2091.9,-388.334"/>
<text text-anchor="middle" x="2085.99" y="-405.8" font-family="Times New Roman,serif" font-size="14.00">old brother(10)</text>
</g>
<!-- Lyanna_Stark -->
<g id="node12" class="node"><title>Lyanna_Stark</title>
<ellipse fill="none" stroke="black" cx="2556.49" cy="-279" rx="58.4896" ry="18"/>
<text text-anchor="middle" x="2556.49" y="-275.3" font-family="Times New Roman,serif" font-size="14.00">Lyanna Stark</text>
</g>
<!-- Eddard_Stark&#45;&gt;Lyanna_Stark -->
<g id="edge11" class="edge"><title>Eddard_Stark&#45;&gt;Lyanna_Stark</title>
<path fill="none" stroke="black" d="M1018.82,-449.688C1208.41,-441.896 1799.63,-415.326 1879.49,-384 1904.32,-374.263 1902.53,-357.381 1927.49,-348 1977.14,-329.341 2112.73,-335.366 2165.49,-330 2282.13,-318.14 2417.75,-299.763 2494.72,-288.902"/>
<polygon fill="black" stroke="black" points="2495.32,-292.353 2504.73,-287.486 2494.34,-285.422 2495.32,-292.353"/>
<text text-anchor="middle" x="1953.49" y="-362.3" font-family="Times New Roman,serif" font-size="14.00">sister(11)</text>
</g>
<!-- Benjen_Stark -->
<g id="node13" class="node"><title>Benjen_Stark</title>
<ellipse fill="none" stroke="black" cx="745.495" cy="-366" rx="56.59" ry="18"/>
<text text-anchor="middle" x="745.495" y="-362.3" font-family="Times New Roman,serif" font-size="14.00">Benjen Stark</text>
</g>
<!-- Eddard_Stark&#45;&gt;Benjen_Stark -->
<g id="edge12" class="edge"><title>Eddard_Stark&#45;&gt;Benjen_Stark</title>
<path fill="none" stroke="black" d="M907.388,-444.85C878.389,-439.63 842.402,-430.958 812.495,-417 797.534,-410.018 782.641,-399.369 770.708,-389.69"/>
<polygon fill="black" stroke="black" points="772.871,-386.936 762.956,-383.201 768.378,-392.304 772.871,-386.936"/>
<text text-anchor="middle" x="844.495" y="-405.8" font-family="Times New Roman,serif" font-size="14.00">brother(12)</text>
</g>
<!-- Rodrik_Cassel -->
<g id="node14" class="node"><title>Rodrik_Cassel</title>
<ellipse fill="none" stroke="black" cx="882.495" cy="-366" rx="62.2891" ry="18"/>
<text text-anchor="middle" x="882.495" y="-362.3" font-family="Times New Roman,serif" font-size="14.00">Rodrik Cassel</text>
</g>
<!-- Eddard_Stark&#45;&gt;Rodrik_Cassel -->
<g id="edge13" class="edge"><title>Eddard_Stark&#45;&gt;Rodrik_Cassel</title>
<path fill="none" stroke="black" d="M916.742,-440.772C904.703,-435.527 892.927,-427.932 885.495,-417 881.008,-410.399 879.352,-402.105 879.075,-394.179"/>
<polygon fill="black" stroke="black" points="882.574,-394.249 879.382,-384.147 875.578,-394.035 882.574,-394.249"/>
<text text-anchor="middle" x="938.495" y="-405.8" font-family="Times New Roman,serif" font-size="14.00">master&#45;at&#45;arms(13)</text>
</g>
<!-- Lysa_Tully -->
<g id="node24" class="node"><title>Lysa_Tully</title>
<ellipse fill="none" stroke="black" cx="1348.49" cy="-279" rx="49.2915" ry="18"/>
<text text-anchor="middle" x="1348.49" y="-275.3" font-family="Times New Roman,serif" font-size="14.00">Lysa Tully</text>
</g>
<!-- Catelyn_Tully&#45;&gt;Lysa_Tully -->
<g id="edge25" class="edge"><title>Catelyn_Tully&#45;&gt;Lysa_Tully</title>
<path fill="none" stroke="black" d="M1388.98,-354.039C1348.13,-343.958 1293.88,-330.492 1293.49,-330 1284.42,-318.376 1294.41,-307.166 1308.25,-298.317"/>
<polygon fill="black" stroke="black" points="1310.32,-301.163 1317.23,-293.129 1306.82,-295.101 1310.32,-301.163"/>
<text text-anchor="middle" x="1319.49" y="-318.8" font-family="Times New Roman,serif" font-size="14.00">sister(25)</text>
</g>
<!-- Samwell_Tarly -->
<g id="node32" class="node"><title>Samwell_Tarly</title>
<ellipse fill="none" stroke="black" cx="624.495" cy="-279" rx="62.2891" ry="18"/>
<text text-anchor="middle" x="624.495" y="-275.3" font-family="Times New Roman,serif" font-size="14.00">Samwell Tarly</text>
</g>
<!-- Jon_Snow&#45;&gt;Samwell_Tarly -->
<g id="edge36" class="edge"><title>Jon_Snow&#45;&gt;Samwell_Tarly</title>
<path fill="none" stroke="black" d="M624.495,-347.799C624.495,-336.163 624.495,-320.548 624.495,-307.237"/>
<polygon fill="black" stroke="black" points="627.995,-307.175 624.495,-297.175 620.995,-307.175 627.995,-307.175"/>
<text text-anchor="middle" x="651.995" y="-318.8" font-family="Times New Roman,serif" font-size="14.00">friend(36)</text>
</g>
<!-- Grenn -->
<g id="node33" class="node"><title>Grenn</title>
<ellipse fill="none" stroke="black" cx="738.495" cy="-279" rx="33.2948" ry="18"/>
<text text-anchor="middle" x="738.495" y="-275.3" font-family="Times New Roman,serif" font-size="14.00">Grenn</text>
</g>
<!-- Jon_Snow&#45;&gt;Grenn -->
<g id="edge37" class="edge"><title>Jon_Snow&#45;&gt;Grenn</title>
<path fill="none" stroke="black" d="M650.775,-350.931C661.259,-344.933 673.248,-337.576 683.495,-330 694.794,-321.646 706.432,-311.353 716.076,-302.281"/>
<polygon fill="black" stroke="black" points="718.535,-304.772 723.338,-295.328 713.695,-299.716 718.535,-304.772"/>
<text text-anchor="middle" x="728.995" y="-318.8" font-family="Times New Roman,serif" font-size="14.00">friend(37)</text>
</g>
<!-- Halder -->
<g id="node34" class="node"><title>Halder</title>
<ellipse fill="none" stroke="black" cx="824.495" cy="-279" rx="34.394" ry="18"/>
<text text-anchor="middle" x="824.495" y="-275.3" font-family="Times New Roman,serif" font-size="14.00">Halder</text>
</g>
<!-- Jon_Snow&#45;&gt;Halder -->
<g id="edge38" class="edge"><title>Jon_Snow&#45;&gt;Halder</title>
<path fill="none" stroke="black" d="M659.286,-353.78C665.966,-351.758 672.926,-349.742 679.495,-348 715.141,-338.547 727.144,-345.739 760.495,-330 775.27,-323.027 789.782,-312.123 801.242,-302.274"/>
<polygon fill="black" stroke="black" points="803.866,-304.625 809.007,-295.361 799.211,-299.396 803.866,-304.625"/>
<text text-anchor="middle" x="812.995" y="-318.8" font-family="Times New Roman,serif" font-size="14.00">friend(38)</text>
</g>
<!-- Ghost -->
<g id="node35" class="node"><title>Ghost</title>
<ellipse fill="none" stroke="black" cx="910.495" cy="-279" rx="33.2948" ry="18"/>
<text text-anchor="middle" x="910.495" y="-275.3" font-family="Times New Roman,serif" font-size="14.00">Ghost</text>
</g>
<!-- Jon_Snow&#45;&gt;Ghost -->
<g id="edge39" class="edge"><title>Jon_Snow&#45;&gt;Ghost</title>
<path fill="none" stroke="black" d="M658.264,-353.452C665.221,-351.388 672.546,-349.439 679.495,-348 751.73,-333.04 775.948,-357.259 844.495,-330 860.449,-323.656 875.882,-312.348 887.808,-302.089"/>
<polygon fill="black" stroke="black" points="890.354,-304.507 895.468,-295.228 885.684,-299.293 890.354,-304.507"/>
<text text-anchor="middle" x="894.495" y="-318.8" font-family="Times New Roman,serif" font-size="14.00">wolf(39)</text>
</g>
<!-- Pyp -->
<g id="node41" class="node"><title>Pyp</title>
<ellipse fill="none" stroke="black" cx="517.495" cy="-279" rx="27" ry="18"/>
<text text-anchor="middle" x="517.495" y="-275.3" font-family="Times New Roman,serif" font-size="14.00">Pyp</text>
</g>
<!-- Jon_Snow&#45;&gt;Pyp -->
<g id="edge45" class="edge"><title>Jon_Snow&#45;&gt;Pyp</title>
<path fill="none" stroke="black" d="M597.651,-351.113C587.201,-345.195 575.385,-337.846 565.495,-330 555.287,-321.903 545.127,-311.71 536.8,-302.643"/>
<polygon fill="black" stroke="black" points="539.277,-300.163 530,-295.046 534.062,-304.831 539.277,-300.163"/>
<text text-anchor="middle" x="592.995" y="-318.8" font-family="Times New Roman,serif" font-size="14.00">friend(45)</text>
</g>
<!-- Grey_Wind -->
<g id="node36" class="node"><title>Grey_Wind</title>
<ellipse fill="none" stroke="black" cx="1111.49" cy="-279" rx="51.1914" ry="18"/>
<text text-anchor="middle" x="1111.49" y="-275.3" font-family="Times New Roman,serif" font-size="14.00">Grey Wind</text>
</g>
<!-- Robb_Stark&#45;&gt;Grey_Wind -->
<g id="edge40" class="edge"><title>Robb_Stark&#45;&gt;Grey_Wind</title>
<path fill="none" stroke="black" d="M1168.9,-348.575C1163.26,-342.814 1156.99,-336.226 1151.49,-330 1144.33,-321.872 1136.81,-312.682 1130.26,-304.419"/>
<polygon fill="black" stroke="black" points="1133.01,-302.244 1124.08,-296.538 1127.5,-306.566 1133.01,-302.244"/>
<text text-anchor="middle" x="1175.49" y="-318.8" font-family="Times New Roman,serif" font-size="14.00">wolf(40)</text>
</g>
<!-- Summer -->
<g id="node37" class="node"><title>Summer</title>
<ellipse fill="none" stroke="black" cx="1221.49" cy="-279" rx="40.8928" ry="18"/>
<text text-anchor="middle" x="1221.49" y="-275.3" font-family="Times New Roman,serif" font-size="14.00">Summer</text>
</g>
<!-- Bran_Stark&#45;&gt;Summer -->
<g id="edge41" class="edge"><title>Bran_Stark&#45;&gt;Summer</title>
<path fill="none" stroke="black" d="M1271.53,-353.214C1259.68,-347.746 1247.25,-340.156 1238.49,-330 1232.94,-323.556 1229.18,-315.212 1226.64,-307.193"/>
<polygon fill="black" stroke="black" points="1229.98,-306.146 1224.03,-297.377 1223.21,-307.94 1229.98,-306.146"/>
<text text-anchor="middle" x="1262.49" y="-318.8" font-family="Times New Roman,serif" font-size="14.00">wolf(41)</text>
</g>
<!-- Shaggy -->
<g id="node38" class="node"><title>Shaggy</title>
<ellipse fill="none" stroke="black" cx="49.4948" cy="-279" rx="37.8943" ry="18"/>
<text text-anchor="middle" x="49.4948" y="-275.3" font-family="Times New Roman,serif" font-size="14.00">Shaggy</text>
</g>
<!-- Rickon_Stark&#45;&gt;Shaggy -->
<g id="edge42" class="edge"><title>Rickon_Stark&#45;&gt;Shaggy</title>
<path fill="none" stroke="black" d="M56.6735,-347.799C55.4414,-336.163 53.7881,-320.548 52.3787,-307.237"/>
<polygon fill="black" stroke="black" points="55.847,-306.751 51.3134,-297.175 48.8859,-307.488 55.847,-306.751"/>
<text text-anchor="middle" x="79.4948" y="-318.8" font-family="Times New Roman,serif" font-size="14.00">wolf(42)</text>
</g>
<!-- Lady -->
<g id="node39" class="node"><title>Lady</title>
<ellipse fill="none" stroke="black" cx="134.495" cy="-279" rx="29.4969" ry="18"/>
<text text-anchor="middle" x="134.495" y="-275.3" font-family="Times New Roman,serif" font-size="14.00">Lady</text>
</g>
<!-- Sansa_Stark&#45;&gt;Lady -->
<g id="edge43" class="edge"><title>Sansa_Stark&#45;&gt;Lady</title>
<path fill="none" stroke="black" d="M179.696,-351.404C169.894,-345.94 159.777,-338.815 152.495,-330 147.041,-323.399 143.176,-315.012 140.464,-307.002"/>
<polygon fill="black" stroke="black" points="143.772,-305.841 137.614,-297.22 137.051,-307.8 143.772,-305.841"/>
<text text-anchor="middle" x="176.495" y="-318.8" font-family="Times New Roman,serif" font-size="14.00">wolf(43)</text>
</g>
<!-- Nymeria -->
<g id="node40" class="node"><title>Nymeria</title>
<ellipse fill="none" stroke="black" cx="222.495" cy="-279" rx="40.8928" ry="18"/>
<text text-anchor="middle" x="222.495" y="-275.3" font-family="Times New Roman,serif" font-size="14.00">Nymeria</text>
</g>
<!-- Arya_Stark&#45;&gt;Nymeria -->
<g id="edge44" class="edge"><title>Arya_Stark&#45;&gt;Nymeria</title>
<path fill="none" stroke="black" d="M308.853,-355.805C282.094,-349.151 250.526,-339.662 240.495,-330 234.165,-323.903 230.053,-315.419 227.385,-307.17"/>
<polygon fill="black" stroke="black" points="230.741,-306.17 224.796,-297.4 223.975,-307.963 230.741,-306.17"/>
<text text-anchor="middle" x="264.495" y="-318.8" font-family="Times New Roman,serif" font-size="14.00">wolf(44)</text>
</g>
<!-- Syrio_Forel -->
<g id="node48" class="node"><title>Syrio_Forel</title>
<ellipse fill="none" stroke="black" cx="333.495" cy="-279" rx="51.9908" ry="18"/>
<text text-anchor="middle" x="333.495" y="-275.3" font-family="Times New Roman,serif" font-size="14.00">Syrio Forel</text>
</g>
<!-- Arya_Stark&#45;&gt;Syrio_Forel -->
<g id="edge54" class="edge"><title>Arya_Stark&#45;&gt;Syrio_Forel</title>
<path fill="none" stroke="black" d="M318.172,-352.186C308.848,-346.802 299.775,-339.526 294.495,-330 289.088,-320.244 294.07,-310.378 302.064,-302.018"/>
<polygon fill="black" stroke="black" points="304.632,-304.414 309.68,-295.099 299.925,-299.233 304.632,-304.414"/>
<text text-anchor="middle" x="329.495" y="-318.8" font-family="Times New Roman,serif" font-size="14.00">her tutor(54)</text>
</g>
<!-- Varys -->
<g id="node50" class="node"><title>Varys</title>
<ellipse fill="none" stroke="black" cx="440.495" cy="-279" rx="32.4942" ry="18"/>
<text text-anchor="middle" x="440.495" y="-275.3" font-family="Times New Roman,serif" font-size="14.00">Varys</text>
</g>
<!-- Arya_Stark&#45;&gt;Varys -->
<g id="edge61" class="edge"><title>Arya_Stark&#45;&gt;Varys</title>
<path fill="none" stroke="black" d="M360.846,-348.074C367.636,-337.794 377.15,-324.807 387.495,-315 394.109,-308.73 401.978,-302.86 409.601,-297.785"/>
<polygon fill="black" stroke="black" points="411.791,-300.54 418.347,-292.217 408.032,-294.635 411.791,-300.54"/>
<text text-anchor="middle" x="434.495" y="-318.8" font-family="Times New Roman,serif" font-size="14.00">hear and trail(61)</text>
</g>
<!-- Jon_Arryn&#45;&gt;Lysa_Tully -->
<g id="edge26" class="edge"><title>Jon_Arryn&#45;&gt;Lysa_Tully</title>
<path fill="none" stroke="black" d="M1523.05,-353.677C1515.97,-351.595 1508.53,-349.583 1501.49,-348 1448.45,-336.071 1426.13,-359.549 1380.49,-330 1371.63,-324.263 1364.74,-315.113 1359.66,-306.2"/>
<polygon fill="black" stroke="black" points="1362.69,-304.447 1355.01,-297.149 1356.47,-307.644 1362.69,-304.447"/>
<text text-anchor="middle" x="1403.49" y="-318.8" font-family="Times New Roman,serif" font-size="14.00">wife(26)</text>
</g>
<!-- Hugh -->
<g id="node51" class="node"><title>Hugh</title>
<ellipse fill="none" stroke="black" cx="1596.49" cy="-279" rx="30.5947" ry="18"/>
<text text-anchor="middle" x="1596.49" y="-275.3" font-family="Times New Roman,serif" font-size="14.00">Hugh</text>
</g>
<!-- Jon_Arryn&#45;&gt;Hugh -->
<g id="edge57" class="edge"><title>Jon_Arryn&#45;&gt;Hugh</title>
<path fill="none" stroke="black" d="M1565.92,-347.971C1568.7,-342.279 1571.77,-335.886 1574.49,-330 1578.08,-322.254 1581.86,-313.774 1585.26,-306.034"/>
<polygon fill="black" stroke="black" points="1588.53,-307.302 1589.32,-296.737 1582.11,-304.503 1588.53,-307.302"/>
<text text-anchor="middle" x="1609.99" y="-318.8" font-family="Times New Roman,serif" font-size="14.00">squire(57)</text>
</g>
<!-- Robber_Baratheon -->
<g id="node15" class="node"><title>Robber_Baratheon</title>
<ellipse fill="none" stroke="black" cx="2479.49" cy="-453" rx="77.1866" ry="18"/>
<text text-anchor="middle" x="2479.49" y="-449.3" font-family="Times New Roman,serif" font-size="14.00">Robber Baratheon</text>
</g>
<!-- Robber_Baratheon&#45;&gt;Jon_Arryn -->
<g id="edge15" class="edge"><title>Robber_Baratheon&#45;&gt;Jon_Arryn</title>
<path fill="none" stroke="black" d="M2404.6,-448.275C2298.06,-442.748 2096.67,-431.453 1925.49,-417 1908.13,-415.534 1630.58,-387.464 1613.49,-384 1609.57,-383.205 1605.53,-382.252 1601.51,-381.209"/>
<polygon fill="black" stroke="black" points="1602.16,-377.758 1591.59,-378.469 1600.29,-384.506 1602.16,-377.758"/>
<text text-anchor="middle" x="1952.99" y="-405.8" font-family="Times New Roman,serif" font-size="14.00">friend(15)</text>
</g>
<!-- Robber_Baratheon&#45;&gt;Lyanna_Stark -->
<g id="edge16" class="edge"><title>Robber_Baratheon&#45;&gt;Lyanna_Stark</title>
<path fill="none" stroke="black" d="M2552.98,-447.24C2639.42,-439.931 2775.16,-422.516 2806.49,-384 2863.07,-314.449 2711.92,-316.86 2624.49,-297 2619.77,-295.928 2614.88,-294.778 2609.98,-293.601"/>
<polygon fill="black" stroke="black" points="2610.5,-290.127 2599.96,-291.163 2608.85,-296.929 2610.5,-290.127"/>
<text text-anchor="middle" x="2841.49" y="-362.3" font-family="Times New Roman,serif" font-size="14.00">love(16)</text>
</g>
<!-- Cersei_Lannister -->
<g id="node16" class="node"><title>Cersei_Lannister</title>
<ellipse fill="none" stroke="black" cx="3218.49" cy="-366" rx="69.5877" ry="18"/>
<text text-anchor="middle" x="3218.49" y="-362.3" font-family="Times New Roman,serif" font-size="14.00">Cersei Lannister</text>
</g>
<!-- Robber_Baratheon&#45;&gt;Cersei_Lannister -->
<g id="edge14" class="edge"><title>Robber_Baratheon&#45;&gt;Cersei_Lannister</title>
<path fill="none" stroke="black" d="M2556.19,-450.322C2695.17,-446.819 2983.33,-437.308 3081.49,-417 3114.29,-410.216 3149.76,-397.096 3176.4,-385.998"/>
<polygon fill="black" stroke="black" points="3177.95,-389.142 3185.79,-382.016 3175.21,-382.697 3177.95,-389.142"/>
<text text-anchor="middle" x="3154.49" y="-405.8" font-family="Times New Roman,serif" font-size="14.00">wife(14)</text>
</g>
<!-- Sandor_Clegane_Hound_ -->
<g id="node17" class="node"><title>Sandor_Clegane_Hound_</title>
<ellipse fill="none" stroke="black" cx="1869.49" cy="-279" rx="98.5829" ry="18"/>
<text text-anchor="middle" x="1869.49" y="-275.3" font-family="Times New Roman,serif" font-size="14.00">Sandor Clegane(Hound)</text>
</g>
<!-- Robber_Baratheon&#45;&gt;Sandor_Clegane_Hound_ -->
<g id="edge17" class="edge"><title>Robber_Baratheon&#45;&gt;Sandor_Clegane_Hound_</title>
<path fill="none" stroke="black" d="M2402.58,-450.629C2277.23,-447.755 2039.67,-439.397 2008.49,-417 1968.54,-388.295 2001.13,-348.919 1965.49,-315 1957.9,-307.771 1948.69,-302.014 1939.03,-297.435"/>
<polygon fill="black" stroke="black" points="1940.22,-294.139 1929.65,-293.396 1937.45,-300.567 1940.22,-294.139"/>
<text text-anchor="middle" x="2015.99" y="-362.3" font-family="Times New Roman,serif" font-size="14.00">knight(17)</text>
</g>
<!-- Joffery_Baratheon -->
<g id="node18" class="node"><title>Joffery_Baratheon</title>
<ellipse fill="none" stroke="black" cx="2951.49" cy="-279" rx="75.2868" ry="18"/>
<text text-anchor="middle" x="2951.49" y="-275.3" font-family="Times New Roman,serif" font-size="14.00">Joffery Baratheon</text>
</g>
<!-- Robber_Baratheon&#45;&gt;Joffery_Baratheon -->
<g id="edge18" class="edge"><title>Robber_Baratheon&#45;&gt;Joffery_Baratheon</title>
<path fill="none" stroke="black" d="M2554.29,-448.361C2615.74,-444.169 2704.69,-435.332 2780.49,-417 2821.1,-407.182 2834.69,-408.541 2868.49,-384 2897.54,-362.912 2921.9,-329.112 2936.57,-305.798"/>
<polygon fill="black" stroke="black" points="2939.64,-307.478 2941.88,-297.123 2933.67,-303.821 2939.64,-307.478"/>
<text text-anchor="middle" x="2925.99" y="-362.3" font-family="Times New Roman,serif" font-size="14.00">son(18)</text>
</g>
<!-- Stannis_Baratheon -->
<g id="node19" class="node"><title>Stannis_Baratheon</title>
<ellipse fill="none" stroke="black" cx="2545.49" cy="-366" rx="76.0865" ry="18"/>
<text text-anchor="middle" x="2545.49" y="-362.3" font-family="Times New Roman,serif" font-size="14.00">Stannis Baratheon</text>
</g>
<!-- Robber_Baratheon&#45;&gt;Stannis_Baratheon -->
<g id="edge19" class="edge"><title>Robber_Baratheon&#45;&gt;Stannis_Baratheon</title>
<path fill="none" stroke="black" d="M2492.53,-435.207C2502.12,-422.866 2515.29,-405.894 2526.11,-391.967"/>
<polygon fill="black" stroke="black" points="2529.11,-393.803 2532.48,-383.758 2523.58,-389.51 2529.11,-393.803"/>
<text text-anchor="middle" x="2548.49" y="-405.8" font-family="Times New Roman,serif" font-size="14.00">brother(19)</text>
</g>
<!-- Renly_Baratheon -->
<g id="node20" class="node"><title>Renly_Baratheon</title>
<ellipse fill="none" stroke="black" cx="2286.49" cy="-366" rx="70.6878" ry="18"/>
<text text-anchor="middle" x="2286.49" y="-362.3" font-family="Times New Roman,serif" font-size="14.00">Renly Baratheon</text>
</g>
<!-- Robber_Baratheon&#45;&gt;Renly_Baratheon -->
<g id="edge20" class="edge"><title>Robber_Baratheon&#45;&gt;Renly_Baratheon</title>
<path fill="none" stroke="black" d="M2427.71,-439.507C2407.53,-433.8 2384.48,-426.233 2364.49,-417 2347.93,-409.347 2330.73,-398.657 2316.7,-389.125"/>
<polygon fill="black" stroke="black" points="2318.63,-386.202 2308.42,-383.377 2314.64,-391.953 2318.63,-386.202"/>
<text text-anchor="middle" x="2396.49" y="-405.8" font-family="Times New Roman,serif" font-size="14.00">brother(20)</text>
</g>
<!-- Gendry -->
<g id="node49" class="node"><title>Gendry</title>
<ellipse fill="none" stroke="black" cx="2413.49" cy="-366" rx="38.1938" ry="18"/>
<text text-anchor="middle" x="2413.49" y="-362.3" font-family="Times New Roman,serif" font-size="14.00">Gendry</text>
</g>
<!-- Robber_Baratheon&#45;&gt;Gendry -->
<g id="edge55" class="edge"><title>Robber_Baratheon&#45;&gt;Gendry</title>
<path fill="none" stroke="black" d="M2458.99,-435.285C2452.96,-429.817 2446.61,-423.476 2441.49,-417 2435.73,-409.705 2430.45,-401.074 2426.06,-393.054"/>
<polygon fill="black" stroke="black" points="2429.08,-391.276 2421.34,-384.038 2422.87,-394.521 2429.08,-391.276"/>
<text text-anchor="middle" x="2473.49" y="-405.8" font-family="Times New Roman,serif" font-size="14.00">bastard(55)</text>
</g>
<!-- Cersei_Lannister&#45;&gt;Joffery_Baratheon -->
<g id="edge21" class="edge"><title>Cersei_Lannister&#45;&gt;Joffery_Baratheon</title>
<path fill="none" stroke="black" d="M3176.48,-351.625C3130.08,-336.854 3055.28,-313.04 3004.79,-296.967"/>
<polygon fill="black" stroke="black" points="3005.62,-293.559 2995.03,-293.861 3003.5,-300.23 3005.62,-293.559"/>
<text text-anchor="middle" x="3121.99" y="-318.8" font-family="Times New Roman,serif" font-size="14.00">son(21)</text>
</g>
<!-- Gregor_Clegane_The_Mountain_ -->
<g id="node42" class="node"><title>Gregor_Clegane_The_Mountain_</title>
<ellipse fill="none" stroke="black" cx="1746.49" cy="-366" rx="124.278" ry="18"/>
<text text-anchor="middle" x="1746.49" y="-362.3" font-family="Times New Roman,serif" font-size="14.00">Gregor Clegane(The Mountain)</text>
</g>
<!-- Sandor_Clegane_Hound_&#45;&gt;Gregor_Clegane_The_Mountain_ -->
<g id="edge46" class="edge"><title>Sandor_Clegane_Hound_&#45;&gt;Gregor_Clegane_The_Mountain_</title>
<path fill="none" stroke="black" d="M1886.48,-296.808C1894.75,-307.044 1901.37,-320.026 1893.49,-330 1886.38,-339.007 1866.96,-345.945 1844.47,-351.178"/>
<polygon fill="black" stroke="black" points="1843.69,-347.764 1834.67,-353.316 1845.19,-354.603 1843.69,-347.764"/>
<text text-anchor="middle" x="1929.49" y="-318.8" font-family="Times New Roman,serif" font-size="14.00">brother(46)</text>
</g>
<!-- Loras_Tyrell -->
<g id="node44" class="node"><title>Loras_Tyrell</title>
<ellipse fill="none" stroke="black" cx="2434.49" cy="-192" rx="55.4913" ry="18"/>
<text text-anchor="middle" x="2434.49" y="-188.3" font-family="Times New Roman,serif" font-size="14.00">Loras Tyrell</text>
</g>
<!-- Sandor_Clegane_Hound_&#45;&gt;Loras_Tyrell -->
<g id="edge53" class="edge"><title>Sandor_Clegane_Hound_&#45;&gt;Loras_Tyrell</title>
<path fill="none" stroke="black" d="M1941.23,-266.622C1953.33,-264.727 1965.77,-262.795 1977.49,-261 2120.12,-239.164 2287.94,-214.442 2375.14,-201.67"/>
<polygon fill="black" stroke="black" points="2375.72,-205.122 2385.11,-200.21 2374.71,-198.195 2375.72,-205.122"/>
<text text-anchor="middle" x="2269.99" y="-231.8" font-family="Times New Roman,serif" font-size="14.00">save him from Mountain(53)</text>
</g>
<!-- Tywin_Lannister -->
<g id="node21" class="node"><title>Tywin_Lannister</title>
<ellipse fill="none" stroke="black" cx="3443.49" cy="-453" rx="69.5877" ry="18"/>
<text text-anchor="middle" x="3443.49" y="-449.3" font-family="Times New Roman,serif" font-size="14.00">Tywin Lannister</text>
</g>
<!-- Tywin_Lannister&#45;&gt;Cersei_Lannister -->
<g id="edge23" class="edge"><title>Tywin_Lannister&#45;&gt;Cersei_Lannister</title>
<path fill="none" stroke="black" d="M3405.83,-437.773C3367.3,-423.216 3307.33,-400.561 3265.66,-384.819"/>
<polygon fill="black" stroke="black" points="3266.87,-381.533 3256.28,-381.274 3264.4,-388.082 3266.87,-381.533"/>
<text text-anchor="middle" x="3378.99" y="-405.8" font-family="Times New Roman,serif" font-size="14.00">daughter(23)</text>
</g>
<!-- Jaime_Lanister -->
<g id="node22" class="node"><title>Jaime_Lanister</title>
<ellipse fill="none" stroke="black" cx="3443.49" cy="-366" rx="61.99" ry="18"/>
<text text-anchor="middle" x="3443.49" y="-362.3" font-family="Times New Roman,serif" font-size="14.00">Jaime Lanister</text>
</g>
<!-- Tywin_Lannister&#45;&gt;Jaime_Lanister -->
<g id="edge22" class="edge"><title>Tywin_Lannister&#45;&gt;Jaime_Lanister</title>
<path fill="none" stroke="black" d="M3443.49,-434.799C3443.49,-423.163 3443.49,-407.548 3443.49,-394.237"/>
<polygon fill="black" stroke="black" points="3446.99,-394.175 3443.49,-384.175 3439.99,-394.175 3446.99,-394.175"/>
<text text-anchor="middle" x="3464.99" y="-405.8" font-family="Times New Roman,serif" font-size="14.00">son(22)</text>
</g>
<!-- Imp_Lannister -->
<g id="node23" class="node"><title>Imp_Lannister</title>
<ellipse fill="none" stroke="black" cx="3584.49" cy="-366" rx="61.1893" ry="18"/>
<text text-anchor="middle" x="3584.49" y="-362.3" font-family="Times New Roman,serif" font-size="14.00">Imp Lannister</text>
</g>
<!-- Tywin_Lannister&#45;&gt;Imp_Lannister -->
<g id="edge24" class="edge"><title>Tywin_Lannister&#45;&gt;Imp_Lannister</title>
<path fill="none" stroke="black" d="M3469.69,-436.211C3492.38,-422.528 3525.39,-402.633 3550.19,-387.682"/>
<polygon fill="black" stroke="black" points="3552.16,-390.578 3558.92,-382.417 3548.55,-384.583 3552.16,-390.578"/>
<text text-anchor="middle" x="3556.49" y="-405.8" font-family="Times New Roman,serif" font-size="14.00">little son(24)</text>
</g>
<!-- Rhaegar_Targaryen -->
<g id="node25" class="node"><title>Rhaegar_Targaryen</title>
<ellipse fill="none" stroke="black" cx="2718.49" cy="-366" rx="79.0865" ry="18"/>
<text text-anchor="middle" x="2718.49" y="-362.3" font-family="Times New Roman,serif" font-size="14.00">Rhaegar Targaryen</text>
</g>
<!-- Rhaegar_Targaryen&#45;&gt;Lyanna_Stark -->
<g id="edge27" class="edge"><title>Rhaegar_Targaryen&#45;&gt;Lyanna_Stark</title>
<path fill="none" stroke="black" d="M2688.4,-349.211C2661.65,-335.175 2622.44,-314.602 2593.72,-299.533"/>
<polygon fill="black" stroke="black" points="2595.28,-296.397 2584.8,-294.85 2592.03,-302.595 2595.28,-296.397"/>
<text text-anchor="middle" x="2677.49" y="-318.8" font-family="Times New Roman,serif" font-size="14.00">rapped(27)</text>
</g>
<!-- Ellia_Martell -->
<g id="node47" class="node"><title>Ellia_Martell</title>
<ellipse fill="none" stroke="black" cx="2333.49" cy="-279" rx="53.0913" ry="18"/>
<text text-anchor="middle" x="2333.49" y="-275.3" font-family="Times New Roman,serif" font-size="14.00">Ellia Martell</text>
</g>
<!-- Rhaegar_Targaryen&#45;&gt;Ellia_Martell -->
<g id="edge52" class="edge"><title>Rhaegar_Targaryen&#45;&gt;Ellia_Martell</title>
<path fill="none" stroke="black" d="M2663.74,-352.912C2589.98,-336.628 2459.57,-307.834 2386.64,-291.734"/>
<polygon fill="black" stroke="black" points="2387.26,-288.287 2376.74,-289.549 2385.76,-295.122 2387.26,-288.287"/>
<text text-anchor="middle" x="2572.49" y="-318.8" font-family="Times New Roman,serif" font-size="14.00">wife(52)</text>
</g>
<!-- Mad_King -->
<g id="node26" class="node"><title>Mad_King</title>
<ellipse fill="none" stroke="black" cx="3010.49" cy="-453" rx="46.5926" ry="18"/>
<text text-anchor="middle" x="3010.49" y="-449.3" font-family="Times New Roman,serif" font-size="14.00">Mad King</text>
</g>
<!-- Mad_King&#45;&gt;Brandon_Stark -->
<g id="edge28" class="edge"><title>Mad_King&#45;&gt;Brandon_Stark</title>
<path fill="none" stroke="black" d="M2967.36,-445.935C2890.55,-435.36 2724.95,-413.573 2584.49,-402 2416.87,-388.189 2373.08,-407.168 2206.49,-384 2200.63,-383.185 2194.55,-382.122 2188.51,-380.927"/>
<polygon fill="black" stroke="black" points="2188.93,-377.44 2178.43,-378.809 2187.49,-384.29 2188.93,-377.44"/>
<text text-anchor="middle" x="2750.49" y="-405.8" font-family="Times New Roman,serif" font-size="14.00">killed(28)</text>
</g>
<!-- Mad_King&#45;&gt;Rhaegar_Targaryen -->
<g id="edge29" class="edge"><title>Mad_King&#45;&gt;Rhaegar_Targaryen</title>
<path fill="none" stroke="black" d="M2985.11,-437.768C2964.09,-426.544 2933.14,-411.283 2904.49,-402 2901.59,-401.059 2839.33,-389.407 2787.63,-379.802"/>
<polygon fill="black" stroke="black" points="2788.26,-376.358 2777.79,-377.974 2786.98,-383.241 2788.26,-376.358"/>
<text text-anchor="middle" x="2960.99" y="-405.8" font-family="Times New Roman,serif" font-size="14.00">son(29)</text>
</g>
<!-- Daenerys_Targaryen -->
<g id="node27" class="node"><title>Daenerys_Targaryen</title>
<ellipse fill="none" stroke="black" cx="1828.49" cy="-105" rx="83.3857" ry="18"/>
<text text-anchor="middle" x="1828.49" y="-101.3" font-family="Times New Roman,serif" font-size="14.00">Daenerys Targaryen</text>
</g>
<!-- Mad_King&#45;&gt;Daenerys_Targaryen -->
<g id="edge30" class="edge"><title>Mad_King&#45;&gt;Daenerys_Targaryen</title>
<path fill="none" stroke="black" d="M3056.31,-448.813C3141.67,-441.61 3316.49,-420.345 3316.49,-367 3316.49,-367 3316.49,-367 3316.49,-191 3316.49,-120.847 2248.37,-108.552 1922.05,-106.433"/>
<polygon fill="black" stroke="black" points="1921.71,-102.931 1911.68,-106.368 1921.66,-109.931 1921.71,-102.931"/>
<text text-anchor="middle" x="3351.99" y="-275.3" font-family="Times New Roman,serif" font-size="14.00">daughter(30)</text>
</g>
<!-- Viserys_Targaryen -->
<g id="node28" class="node"><title>Viserys_Targaryen</title>
<ellipse fill="none" stroke="black" cx="3053.49" cy="-366" rx="77.1866" ry="18"/>
<text text-anchor="middle" x="3053.49" y="-362.3" font-family="Times New Roman,serif" font-size="14.00">Viserys Targaryen</text>
</g>
<!-- Mad_King&#45;&gt;Viserys_Targaryen -->
<g id="edge31" class="edge"><title>Mad_King&#45;&gt;Viserys_Targaryen</title>
<path fill="none" stroke="black" d="M3018.99,-435.207C3025.08,-423.178 3033.39,-406.748 3040.33,-393.028"/>
<polygon fill="black" stroke="black" points="3043.48,-394.552 3044.87,-384.049 3037.23,-391.393 3043.48,-394.552"/>
<text text-anchor="middle" x="3055.99" y="-405.8" font-family="Times New Roman,serif" font-size="14.00">son(31)</text>
</g>
<!-- Khal_Drogo -->
<g id="node29" class="node"><title>Khal_Drogo</title>
<ellipse fill="none" stroke="black" cx="1759.49" cy="-18" rx="53.0913" ry="18"/>
<text text-anchor="middle" x="1759.49" y="-14.3" font-family="Times New Roman,serif" font-size="14.00">Khal Drogo</text>
</g>
<!-- Daenerys_Targaryen&#45;&gt;Khal_Drogo -->
<g id="edge32" class="edge"><title>Daenerys_Targaryen&#45;&gt;Khal_Drogo</title>
<path fill="none" stroke="black" d="M1814.86,-87.2067C1804.68,-74.669 1790.63,-57.3502 1779.22,-43.3018"/>
<polygon fill="black" stroke="black" points="1781.88,-41.0272 1772.86,-35.4692 1776.45,-45.439 1781.88,-41.0272"/>
<text text-anchor="middle" x="1833.49" y="-57.8" font-family="Times New Roman,serif" font-size="14.00">husband(32)</text>
</g>
<!-- Illyrio -->
<g id="node30" class="node"><title>Illyrio</title>
<ellipse fill="none" stroke="black" cx="1726.49" cy="-192" rx="31.6951" ry="18"/>
<text text-anchor="middle" x="1726.49" y="-188.3" font-family="Times New Roman,serif" font-size="14.00">Illyrio</text>
</g>
<!-- Daenerys_Targaryen&#45;&gt;Illyrio -->
<g id="edge33" class="edge"><title>Daenerys_Targaryen&#45;&gt;Illyrio</title>
<path fill="none" stroke="black" d="M1824.4,-123.127C1821.1,-133.745 1815.49,-147.023 1806.49,-156 1795.16,-167.311 1779.56,-175.246 1765.14,-180.666"/>
<polygon fill="black" stroke="black" points="1763.73,-177.453 1755.42,-184.027 1766.01,-184.069 1763.73,-177.453"/>
<text text-anchor="middle" x="1852.49" y="-144.8" font-family="Times New Roman,serif" font-size="14.00">magister(33)</text>
</g>
<!-- Jorah_Mormont -->
<g id="node31" class="node"><title>Jorah_Mormont</title>
<ellipse fill="none" stroke="black" cx="1897.49" cy="-18" rx="66.8882" ry="18"/>
<text text-anchor="middle" x="1897.49" y="-14.3" font-family="Times New Roman,serif" font-size="14.00">Jorah Mormont</text>
</g>
<!-- Daenerys_Targaryen&#45;&gt;Jorah_Mormont -->
<g id="edge34" class="edge"><title>Daenerys_Targaryen&#45;&gt;Jorah_Mormont</title>
<path fill="none" stroke="black" d="M1853.03,-87.5438C1859.88,-82.1757 1866.96,-75.824 1872.49,-69 1878.14,-62.0324 1882.97,-53.5789 1886.84,-45.6204"/>
<polygon fill="black" stroke="black" points="1890.12,-46.8448 1891.06,-36.2916 1883.75,-43.9565 1890.12,-46.8448"/>
<text text-anchor="middle" x="1903.49" y="-57.8" font-family="Times New Roman,serif" font-size="14.00">Ser(34)</text>
</g>
<!-- Illyrio&#45;&gt;Daenerys_Targaryen -->
<g id="edge35" class="edge"><title>Illyrio&#45;&gt;Daenerys_Targaryen</title>
<path fill="none" stroke="black" d="M1720.46,-174.197C1717.82,-163.71 1716.68,-150.453 1723.49,-141 1730.36,-131.475 1739.93,-124.504 1750.52,-119.408"/>
<polygon fill="black" stroke="black" points="1752.19,-122.503 1760.05,-115.397 1749.48,-116.051 1752.19,-122.503"/>
<text text-anchor="middle" x="1762.99" y="-144.8" font-family="Times New Roman,serif" font-size="14.00">three eggs(35)</text>
</g>
<!-- Gregor_Clegane_The_Mountain_&#45;&gt;Sandor_Clegane_Hound_ -->
<g id="edge47" class="edge"><title>Gregor_Clegane_The_Mountain_&#45;&gt;Sandor_Clegane_Hound_</title>
<path fill="none" stroke="black" d="M1771.63,-348.239C1779.95,-342.564 1789.19,-336.114 1797.49,-330 1806.16,-323.619 1807.78,-321.303 1816.49,-315 1822.45,-310.692 1828.91,-306.253 1835.19,-302.044"/>
<polygon fill="black" stroke="black" points="1837.18,-304.921 1843.59,-296.481 1833.32,-299.085 1837.18,-304.921"/>
<text text-anchor="middle" x="1852.99" y="-318.8" font-family="Times New Roman,serif" font-size="14.00">burn him(47)</text>
</g>
<!-- Aegon_Targaryen -->
<g id="node46" class="node"><title>Aegon_Targaryen</title>
<ellipse fill="none" stroke="black" cx="2059.49" cy="-279" rx="73.387" ry="18"/>
<text text-anchor="middle" x="2059.49" y="-275.3" font-family="Times New Roman,serif" font-size="14.00">Aegon Targaryen</text>
</g>
<!-- Gregor_Clegane_The_Mountain_&#45;&gt;Aegon_Targaryen -->
<g id="edge50" class="edge"><title>Gregor_Clegane_The_Mountain_&#45;&gt;Aegon_Targaryen</title>
<path fill="none" stroke="black" d="M1836.76,-353.616C1886.09,-346.792 1941.86,-337.929 1965.49,-330 1986.54,-322.941 2008.52,-311.505 2025.93,-301.35"/>
<polygon fill="black" stroke="black" points="2027.79,-304.314 2034.59,-296.186 2024.21,-298.302 2027.79,-304.314"/>
<text text-anchor="middle" x="2026.49" y="-318.8" font-family="Times New Roman,serif" font-size="14.00">killed(50)</text>
</g>
<!-- Gregor_Clegane_The_Mountain_&#45;&gt;Ellia_Martell -->
<g id="edge51" class="edge"><title>Gregor_Clegane_The_Mountain_&#45;&gt;Ellia_Martell</title>
<path fill="none" stroke="black" d="M1837.03,-353.607C1852.84,-351.685 1869.14,-349.749 1884.49,-348 1960.86,-339.301 1981.27,-345.767 2056.49,-330 2077.96,-325.502 2082.15,-319.998 2103.49,-315 2160.47,-301.662 2226.61,-292.211 2273.31,-286.52"/>
<polygon fill="black" stroke="black" points="2273.75,-289.992 2283.26,-285.328 2272.91,-283.042 2273.75,-289.992"/>
<text text-anchor="middle" x="2134.49" y="-318.8" font-family="Times New Roman,serif" font-size="14.00">rapped(51)</text>
</g>
<!-- Gregor_Clegane_The_Mountain_&#45;&gt;Hugh -->
<g id="edge59" class="edge"><title>Gregor_Clegane_The_Mountain_&#45;&gt;Hugh</title>
<path fill="none" stroke="black" d="M1710.01,-348.637C1698.19,-343.041 1685.14,-336.536 1673.49,-330 1656.57,-320.502 1638.33,-308.731 1623.86,-298.996"/>
<polygon fill="black" stroke="black" points="1625.61,-295.958 1615.37,-293.237 1621.68,-301.75 1625.61,-295.958"/>
<text text-anchor="middle" x="1733.49" y="-318.8" font-family="Times New Roman,serif" font-size="14.00">lance him in joust(59)</text>
</g>
<!-- Mac_Tyrell -->
<g id="node43" class="node"><title>Mac_Tyrell</title>
<ellipse fill="none" stroke="black" cx="2683.49" cy="-279" rx="50.0912" ry="18"/>
<text text-anchor="middle" x="2683.49" y="-275.3" font-family="Times New Roman,serif" font-size="14.00">Mac Tyrell</text>
</g>
<!-- Mac_Tyrell&#45;&gt;Loras_Tyrell -->
<g id="edge48" class="edge"><title>Mac_Tyrell&#45;&gt;Loras_Tyrell</title>
<path fill="none" stroke="black" d="M2648.61,-266.092C2604.78,-251.131 2529.44,-225.411 2480.82,-208.813"/>
<polygon fill="black" stroke="black" points="2481.76,-205.437 2471.17,-205.519 2479.5,-212.062 2481.76,-205.437"/>
<text text-anchor="middle" x="2595.99" y="-231.8" font-family="Times New Roman,serif" font-size="14.00">son(48)</text>
</g>
<!-- Petyr_Baelish -->
<g id="node45" class="node"><title>Petyr_Baelish</title>
<ellipse fill="none" stroke="black" cx="1834.49" cy="-453" rx="57.6901" ry="18"/>
<text text-anchor="middle" x="1834.49" y="-449.3" font-family="Times New Roman,serif" font-size="14.00">Petyr Baelish</text>
</g>
<!-- Petyr_Baelish&#45;&gt;Catelyn_Tully -->
<g id="edge49" class="edge"><title>Petyr_Baelish&#45;&gt;Catelyn_Tully</title>
<path fill="none" stroke="black" d="M1793.42,-440.317C1753.2,-429.212 1690.03,-412.666 1634.49,-402 1575.92,-390.749 1560.07,-395.251 1501.49,-384 1496.54,-383.049 1491.41,-381.96 1486.29,-380.804"/>
<polygon fill="black" stroke="black" points="1487.04,-377.384 1476.5,-378.514 1485.44,-384.2 1487.04,-377.384"/>
<text text-anchor="middle" x="1734.99" y="-405.8" font-family="Times New Roman,serif" font-size="14.00">love her(49)</text>
</g>
<!-- Varys&#45;&gt;Eddard_Stark -->
<g id="edge56" class="edge"><title>Varys&#45;&gt;Eddard_Stark</title>
<path fill="none" stroke="black" d="M460.518,-293.494C467.969,-299.358 475.951,-306.773 481.495,-315 499.559,-341.807 480.08,-362.814 504.495,-384 560.995,-433.026 778.082,-446.712 891.136,-450.527"/>
<polygon fill="black" stroke="black" points="891.305,-454.035 901.412,-450.857 891.529,-447.038 891.305,-454.035"/>
<text text-anchor="middle" x="536.495" y="-362.3" font-family="Times New Roman,serif" font-size="14.00">tell plot(56)</text>
</g>
<!-- Varys&#45;&gt;Illyrio -->
<g id="edge60" class="edge"><title>Varys&#45;&gt;Illyrio</title>
<path fill="none" stroke="black" d="M464.331,-266.533C469.851,-264.326 475.785,-262.3 481.495,-261 718.037,-207.157 1494.75,-195.471 1684.43,-193.396"/>
<polygon fill="black" stroke="black" points="1684.59,-196.894 1694.55,-193.288 1684.51,-189.895 1684.59,-196.894"/>
<text text-anchor="middle" x="736.995" y="-231.8" font-family="Times New Roman,serif" font-size="14.00">talk(60)</text>
</g>
<!-- Hugh&#45;&gt;Jon_Arryn -->
<g id="edge58" class="edge"><title>Hugh&#45;&gt;Jon_Arryn</title>
<path fill="none" stroke="black" d="M1566.26,-282.065C1523.8,-285.667 1449.87,-294.739 1433.49,-315 1429.3,-320.185 1429.43,-324.717 1433.49,-330 1452.56,-354.774 1471.42,-339.458 1501.49,-348 1505.08,-349.018 1508.78,-350.092 1512.5,-351.187"/>
<polygon fill="black" stroke="black" points="1511.72,-354.606 1522.3,-354.106 1513.72,-347.897 1511.72,-354.606"/>
<text text-anchor="middle" x="1501.99" y="-318.8" font-family="Times New Roman,serif" font-size="14.00">was said poison him(58)</text>
</g>
</g>
</svg>
